# xmcd CD database file generated by Grip 3.2.0
# 
# Track frame offsets:
#       150
#       20125
#       47080
#       93705
# 
# Disc length: 1480 seconds
# 
# Revision: 7
# Processed by: cddbd v1.5.2PL0 Copyright (c) Steve Scherf et al.
# Submitted via: Grip 3.2.0
# 
DISCID=3105c604
DTITLE=Gary Moore - Cold Day In Hell
DYEAR=1992
DGENRE=Rock
TTITLE0=Cold Day In Hell
TTITLE1=All Time Low
TTITLE2=Stormy Monday (Live, feat. Albert King)
TTITLE3=Woke Up This Morning
EXTD=
EXTT0=
EXTT1=
EXTT2=
EXTT3=
PLAYORDER=
